<?xml version="1.0" encoding="UTF-8" standalone="no"?>
<svg width="20px" height="16px" viewBox="0 0 20 16" version="1.1" xmlns="http://www.w3.org/2000/svg" xmlns:xlink="http://www.w3.org/1999/xlink">
    <!-- Generator: sketchtool 50.2 (55047) - http://www.bohemiancoding.com/sketch -->
    <title>11154BA9-5E15-48B9-B3AF-7DB4B831A47E</title>
    <desc>Created with sketchtool.</desc>
    <defs></defs>
    <g id="IMPL" stroke="none" stroke-width="1" fill="none" fill-rule="evenodd">
        <g id="Menu_ipx" transform="translate(-144.000000, -407.000000)" fill="#FFFFFF">
            <g id="Group-14" transform="translate(122.000000, 398.000000)">
                <g id="Group-13" transform="translate(22.000000, 8.235294)">
                    <g id="Mail" transform="translate(0.000000, 1.029412)">
                        <path d="M18.5422222,0.183006536 L1.65333333,0.183006536 C0.916953667,0.183006536 0.32,0.797517664 0.32,1.55555556 L0.32,14.3660131 C0.32,15.124051 0.916953667,15.7385621 1.65333333,15.7385621 L18.5422222,15.7385621 C19.2786019,15.7385621 19.8755556,15.124051 19.8755556,14.3660131 L19.8755556,1.55555556 C19.8755556,0.797517664 19.2786019,0.183006536 18.5422222,0.183006536 Z M18.5422222,13.3960784 L15.0133333,9.76339869 C14.750658,9.51143634 14.3413247,9.51887096 14.0874473,9.78021535 C13.8335699,10.0415597 13.8263477,10.4629323 14.0711111,10.7333333 L17.6,14.3660131 L2.59555556,14.3660131 L6.12444444,10.7333333 C6.36920788,10.4629323 6.36198567,10.0415597 6.10810827,9.78021535 C5.85423086,9.51887096 5.44489756,9.51143634 5.18222222,9.76339869 L1.65333333,13.3960784 L1.65333333,4.58888889 L9.65333333,10.7973856 C9.89037037,10.9803922 10.2162963,10.9803922 10.4533333,10.7973856 L18.5333333,4.58431373 L18.5422222,13.3960784 Z M18.5422222,1.55555556 L18.5422222,2.87320261 L10.0666667,9.39281046 L1.65333333,2.87320261 L1.65333333,1.55555556 L18.5422222,1.55555556 Z" id="Shape"></path>
                    </g>
                </g>
            </g>
        </g>
    </g>
</svg>