<?xml version="1.0" encoding="UTF-8" standalone="no"?>
<svg width="33px" height="33px" viewBox="0 0 33 33" version="1.1" xmlns="http://www.w3.org/2000/svg" xmlns:xlink="http://www.w3.org/1999/xlink">
    <!-- Generator: sketchtool 50.2 (55047) - http://www.bohemiancoding.com/sketch -->
    <title>9D5B7661-41ED-4529-82A3-2E7E21819304</title>
    <desc>Created with sketchtool.</desc>
    <defs></defs>
    <g id="Page-1" stroke="none" stroke-width="1" fill="none" fill-rule="evenodd">
        <g id="Impl_index" transform="translate(-705.000000, -1945.000000)" fill="#FFFFFF">
            <g id="Group-10" transform="translate(142.000000, 1900.000000)">
                <g id="Group-17" transform="translate(519.000000, 0.000000)">
                    <g id="Rocket" transform="translate(43.764706, 45.176471)">
                        <path d="M18.9805348,9.88877005 C17.2545916,9.88992086 15.760038,11.087355 15.3825095,12.7715027 C15.0049811,14.4556504 15.8453558,16.1764959 17.4056486,16.9143088 C18.9659413,17.6521216 20.8292311,17.2097532 21.8913787,15.8493401 C22.9535263,14.488927 22.9307184,12.5739809 21.8364706,11.2392513 C21.1350804,10.3837174 20.0868285,9.88803241 18.9805348,9.88877005 Z M19.917754,14.7224599 C19.4561379,15.1016479 18.811467,15.1651775 18.2847145,14.8833889 C17.757962,14.6016004 17.4530188,14.0300707 17.5122517,13.435626 C17.5714846,12.8411814 17.9832112,12.3410635 18.5552114,12.1687593 C19.1272116,11.996455 19.7466703,12.1859476 20.124385,12.6487701 C20.6368765,13.2808124 20.5411463,14.2084056 19.9103743,14.7224599 L19.917754,14.7224599 Z" id="Shape"></path>
                        <path d="M32.3229947,2.50909091 C32.2862661,1.35965341 31.3755844,0.429731925 30.2271658,0.368983957 L29.348984,0.368983957 C26.1462032,0.368983957 18.1835294,0.892941176 13.3498396,5.72663102 C12.5124598,6.56910916 11.7379773,7.47184999 11.0326203,8.42759358 L10.8407487,8.47925134 L2.03679144,11.4827807 C1.30184708,11.7255195 0.747030593,12.3344504 0.573541826,13.0887494 C0.400053058,13.8430484 0.633084202,14.6331842 1.18812834,15.1726203 L5.89636364,19.8882353 C5.24398052,20.0926565 4.64441866,20.4377824 4.14,20.8992513 C3.04743697,22.1834672 2.54646512,23.8685543 2.76,25.5410695 C2.67094355,25.852829 2.53933008,26.1508217 2.36887701,26.426631 C1.97105558,27.0421208 1.90359987,27.814595 2.18871918,28.489722 C2.47383848,29.1648491 3.07458042,29.6551304 3.79315508,29.7991444 C4.0167189,29.8436343 4.24413813,29.8658818 4.47208556,29.8655615 C5.13241615,29.8583486 5.78003526,29.6831104 6.35390374,29.3563636 C6.55726323,29.504405 6.78436437,29.6167077 7.02545455,29.6884492 C7.43854661,29.804059 7.86580526,29.8611924 8.29475936,29.8581818 C9.57055549,29.8640924 10.7956535,29.3591713 11.6967914,28.4560428 C12.1761846,27.9717304 12.5373227,27.3833026 12.7520856,26.7365775 L17.4234225,31.4079144 C17.9649581,31.9625152 18.7571105,32.1935015 19.5118628,32.0168894 C20.2666151,31.8402774 20.8740312,31.2817921 21.113262,30.544492 L24.0060963,21.8659893 C25.010624,21.1708484 25.9515284,20.3879962 26.817754,19.526631 C32.6329412,13.6671658 32.337754,2.98139037 32.3229947,2.50909091 Z M9.12128342,11.3647059 C8.05451499,13.297422 7.24569971,15.3616376 6.71550802,17.5045989 L2.74524064,13.5786096 L9.12128342,11.3647059 Z M10.1249198,26.8620321 C9.637081,27.3458988 8.97437943,27.612044 8.28737968,27.6 C8.07351883,27.6031245 7.86016518,27.5783159 7.65272727,27.5262032 C7.65272727,27.5262032 7.58631016,25.7845989 7.17304813,25.3713369 C7.17304813,25.3713369 5.84470588,27.5852406 4.46470588,27.5852406 C4.38373091,27.5933294 4.30215144,27.5933294 4.22117647,27.5852406 C4.67730904,26.8989638 4.93288312,26.099017 4.95914439,25.2754011 C4.82056134,24.2634512 5.08563863,23.237602 5.6971123,22.4194652 C6.40079371,21.9195288 7.24732507,21.6606507 8.11026738,21.6814973 C8.85360349,21.647397 9.57948736,21.9132885 10.1249198,22.4194652 C10.1249198,22.4194652 11.6672727,25.3196791 10.1249198,26.8620321 Z M18.9805348,29.8139037 L14.7150802,25.5484492 C16.9208179,25.2019351 19.0624187,24.5278656 21.068984,23.5485561 L18.9805348,29.8139037 Z M25.2163636,17.9326203 C22.025234,21.0688843 17.8603996,23.0237534 13.408877,23.4747594 L12.604492,22.6703743 C12.4608929,22.2292415 12.2832463,21.799929 12.0731551,21.3863102 C11.9716928,21.1937434 11.8423873,21.0171917 11.6894118,20.8623529 C11.1123079,20.2885834 10.3947074,19.8763448 9.60834225,19.6668449 L8.71540107,18.7739037 C9.62753465,14.427288 11.7808392,10.4385476 14.9143316,7.29112299 C16.6989861,5.61592845 18.8644988,4.40020203 21.2239572,3.74887701 C21.1551979,5.83488097 21.8925486,7.86722011 23.2828877,9.42385027 C24.7883335,10.7960303 26.7751316,11.5175378 28.8102674,11.431123 L28.8693048,11.431123 C28.2039782,13.8574045 26.9635976,16.0875583 25.253262,17.9326203 L25.2163636,17.9326203 Z M29.4449198,9.19508021 C27.5040642,9.33529412 25.8362567,8.86299465 24.8473797,7.86673797 C23.8585027,6.87048128 23.3714439,5.15839572 23.437861,3.18802139 C25.3814256,2.79487796 27.3586977,2.59220757 29.3416043,2.5828877 C29.5903652,2.5959273 29.8395937,2.56851216 30.0795722,2.50171123 C30.1274524,4.74742414 29.9144762,6.99110413 29.4449198,9.18770053 L29.4449198,9.19508021 Z" id="Shape"></path>
                    </g>
                </g>
            </g>
        </g>
    </g>
</svg>