<?xml version="1.0" encoding="UTF-8" standalone="no"?>
<svg width="35px" height="31px" viewBox="0 0 35 31" version="1.1" xmlns="http://www.w3.org/2000/svg" xmlns:xlink="http://www.w3.org/1999/xlink">
    <!-- Generator: sketchtool 50.2 (55047) - http://www.bohemiancoding.com/sketch -->
    <title>BC6A1F5F-328C-4D94-9394-FF4561C9C306</title>
    <desc>Created with sketchtool.</desc>
    <defs></defs>
    <g id="Page-1" stroke="none" stroke-width="1" fill="none" fill-rule="evenodd">
        <g id="Impl_index" transform="translate(-1105.000000, -1945.000000)" fill="#FFFFFF">
            <g id="Group-10" transform="translate(142.000000, 1900.000000)">
                <g id="Group-18" transform="translate(919.000000, 0.000000)">
                    <g id="Diamond" transform="translate(44.129412, 45.552941)">
                        <path d="M33.3214919,7.47262078 L26.7793141,0.930443054 C26.370741,0.521360718 25.8164374,0.291272442 25.2382678,0.290763454 L9.24627785,0.290763454 C8.66810824,0.291272442 8.11380466,0.521360718 7.70523154,0.930443054 L1.16305382,7.47262078 C0.366788126,8.25136024 0.285302225,9.50498948 0.974057572,10.3802553 L15.5122303,29.2798798 C15.9249517,29.8177123 16.5643327,30.1330071 17.2422728,30.1330071 C17.9202129,30.1330071 18.5595939,29.8177123 18.9723154,29.2798798 L33.5104881,10.3802553 C34.1992435,9.50498948 34.1177576,8.25136024 33.3214919,7.47262078 L33.3214919,7.47262078 Z M7.50896621,4.208801 L9.77692115,8.28675845 L3.43100876,8.28675845 L7.50896621,4.208801 Z M21.0803504,8.28675845 L13.4041952,8.28675845 L17.2422728,3.48916145 L21.0803504,8.28675845 Z M21.6909537,10.4674844 L17.2422728,24.9329662 L12.793592,10.4674844 L21.6909537,10.4674844 Z M10.5110989,10.4674844 L14.9670488,24.9547735 L3.79446308,10.4674844 L10.5110989,10.4674844 Z M23.9734468,10.4674844 L30.6900826,10.4674844 L19.5465732,24.9547735 L23.9734468,10.4674844 Z M24.7003554,8.28675845 L26.9683104,4.208801 L31.0462678,8.28675845 L24.7003554,8.28675845 Z M25.2309987,2.47148936 L25.3618423,2.60233292 L22.8830839,7.05828285 L19.2121952,2.46422028 L25.2309987,2.47148936 Z M15.2578123,2.47148936 L11.5869237,7.06555194 L9.10816521,2.609602 L9.23900876,2.47875845 L15.2578123,2.47148936 Z" id="Shape"></path>
                    </g>
                </g>
            </g>
        </g>
    </g>
</svg>