<?xml version="1.0" encoding="UTF-8" standalone="no"?>
<svg width="16px" height="31px" viewBox="0 0 16 31" version="1.1" xmlns="http://www.w3.org/2000/svg" xmlns:xlink="http://www.w3.org/1999/xlink">
    <!-- Generator: sketchtool 50.2 (55047) - http://www.bohemiancoding.com/sketch -->
    <title>2DCB7C3A-0665-430A-B64A-6AFCC46924C7</title>
    <desc>Created with sketchtool.</desc>
    <defs></defs>
    <g id="Page-1" stroke="none" stroke-width="1" fill="none" fill-rule="evenodd">
        <g id="Impl_index" transform="translate(-315.000000, -1946.000000)" fill="#FFFFFF">
            <g id="Group-10" transform="translate(142.000000, 1900.000000)">
                <g id="Group-16" transform="translate(119.000000, 0.000000)">
                    <g id="Dollar" transform="translate(54.000000, 46.000000)">
                        <path d="M13.6273214,15.3269099 C12.3534785,14.1776223 10.6819425,13.5328767 8.94222894,13.5197742 L8.94222894,4.56657932 C9.95030692,4.73122265 10.8831,5.18881149 11.6172157,5.87881476 C12.3903333,6.62866358 12.3903333,7.22854263 12.3903333,8.62326144 C12.3903333,9.24445654 12.9095381,9.74803467 13.5500096,9.74803467 C14.1904812,9.74803467 14.709686,9.24445654 14.709686,8.62326144 C14.709686,7.07107438 14.709686,5.73634348 13.2253002,4.29663374 C12.0560858,3.1848574 10.5380218,2.48297282 8.91130424,2.30203588 L8.91130424,1.12477323 C8.91130424,0.503578129 8.39209945,0 7.75162789,0 C7.11115633,0 6.59195155,0.503578129 6.59195155,1.12477323 L6.59195155,2.33202983 C5.23920905,2.41279149 3.95625017,2.94230012 2.95829899,3.83172747 C0.113226359,6.59117113 -0.0104724517,11.3302157 2.67997667,13.9096956 C3.76861064,14.8607614 5.13622559,15.4584519 6.59195155,15.6193509 L6.59195155,25.6298327 C5.73404843,25.3815075 4.95306576,24.9306282 4.31898591,24.3175973 C2.92737429,22.9678694 2.20064378,22.0005644 2.33207377,20.7258214 C2.39503179,20.109086 1.93175917,19.5591605 1.29609623,19.4960693 C0.989843634,19.4625864 0.682614159,19.5503437 0.443956955,19.7394751 C0.20529975,19.9286066 0.0553971625,20.203118 0.0281834265,20.5008668 C-0.219214194,22.8778875 1.20332212,24.4750655 2.67997667,25.9072768 C3.74761274,26.9455668 5.10919439,27.6528456 6.59195155,27.9393671 L6.59195155,29.6190284 C6.59195155,30.2402235 7.11115633,30.7438017 7.75162789,30.7438017 C8.39209945,30.7438017 8.91130424,30.2402235 8.91130424,29.6190284 L8.91130424,28.0593429 C10.6828938,27.8956583 12.3399573,27.1371493 13.5963967,25.9147752 C16.6127819,22.9966133 16.6266118,18.2616005 13.6273214,15.3269099 L13.6273214,15.3269099 Z M4.34991061,12.3275146 C2.59493374,10.6253578 2.7340949,7.27353356 4.62823293,5.42890546 C5.182922,4.94854197 5.88228194,4.65408133 6.62287625,4.58907478 L6.62287625,13.3398105 C5.78205313,13.2167122 4.99416355,12.8658149 4.34991061,12.3275146 L4.34991061,12.3275146 Z M11.9883121,24.3250957 C11.1685253,25.1335181 10.0989312,25.6601182 8.94222894,25.8247934 L8.94222894,15.8068131 C10.0689066,15.8034467 11.1558885,16.2101689 11.9883121,16.9465834 C14.0712793,18.991216 14.0712793,22.2804631 11.9883121,24.3250957 L11.9883121,24.3250957 Z" id="Shape"></path>
                    </g>
                </g>
            </g>
        </g>
    </g>
</svg>